HIERARCHY
ROOT Hips
{
    OFFSET 0.000000 0.000000 0.000000
    CHANNELS 6 Xposition Yposition Zposition Zrotation Xrotation Yrotation
    JOINT Spine
    {
        OFFSET -0.000000 8.172037 0.000000
        CHANNELS 3 Zrotation Xrotation Yrotation
        JOINT Spine1
        {
            OFFSET -0.000000 18.392342 0.000000
            CHANNELS 3 Zrotation Xrotation Yrotation
            JOINT Neck
            {
                OFFSET -0.000000 18.316809 1.665164
                CHANNELS 3 Zrotation Xrotation Yrotation
                JOINT Head
                {
                    OFFSET -0.000000 13.952258 -1.993180
                    CHANNELS 3 Zrotation Xrotation Yrotation
                    End Site
                    {
                        OFFSET -0.000000 24.914745 0.000000
                    }
                }
            }
            JOINT LeftShoulder
            {
                OFFSET 4.035833 16.062790 -0.310290
                CHANNELS 3 Zrotation Xrotation Yrotation
                JOINT LeftArm
                {
                    OFFSET 12.395579 0.000000 0.000000
                    CHANNELS 3 Zrotation Xrotation Yrotation
                    JOINT LeftForeArm
                    {
                        OFFSET 26.414022 0.000000 0.000000
                        CHANNELS 3 Zrotation Xrotation Yrotation
                        JOINT LeftHand
                        {
                            OFFSET 28.641636 0.000000 0.000000
                            CHANNELS 3 Zrotation Xrotation Yrotation
                            End Site
                            {
                                OFFSET 14.948848 0.000000 0.000000
                            }
                        }
                    }
                }
            }
            JOINT RightShoulder
            {
                OFFSET -3.919767 16.062790 -0.310290
                CHANNELS 3 Zrotation Xrotation Yrotation
                JOINT RightArm
                {
                    OFFSET -12.395579 0.000000 0.000000
                    CHANNELS 3 Zrotation Xrotation Yrotation
                    JOINT RightForeArm
                    {
                        OFFSET -26.414022 0.000000 0.000000
                        CHANNELS 3 Zrotation Xrotation Yrotation
                        JOINT RightHand
                        {
                            OFFSET -28.641636 0.000000 0.000000
                            CHANNELS 3 Zrotation Xrotation Yrotation
                            End Site
                            {
                                OFFSET -14.948848 0.000000 0.000000
                            }
                        }
                    }
                }
            }
        }
    }
    JOINT LeftUpLeg
    {
        OFFSET 9.965899 0.000000 0.000000
        CHANNELS 3 Zrotation Xrotation Yrotation
        JOINT LeftLeg
        {
            OFFSET -0.000000 -49.671295 0.000000
            CHANNELS 3 Zrotation Xrotation Yrotation
            JOINT LeftFoot
            {
                OFFSET -0.000000 -36.155865 0.000000
                CHANNELS 3 Zrotation Xrotation Yrotation
                JOINT LeftToeBase
                {
                    OFFSET -0.000000 -6.477834 14.948848
                    CHANNELS 3 Zrotation Xrotation Yrotation
                    End Site
                    {
                        OFFSET -0.000000 0.000000 3.986359
                    }
                }
            }
        }
    }
    JOINT RightUpLeg
    {
        OFFSET -9.965899 0.000000 0.000000
        CHANNELS 3 Zrotation Xrotation Yrotation
        JOINT RightLeg
        {
            OFFSET -0.000000 -49.671295 0.000000
            CHANNELS 3 Zrotation Xrotation Yrotation
            JOINT RightFoot
            {
                OFFSET -0.000000 -36.155865 0.000000
                CHANNELS 3 Zrotation Xrotation Yrotation
                JOINT RightToeBase
                {
                    OFFSET -0.000000 -6.477834 14.948848
                    CHANNELS 3 Zrotation Xrotation Yrotation
                    End Site
                    {
                        OFFSET -0.000000 0.000000 3.986359
                    }
                }
            }
        }
    }
}
MOTION
Frames:    11
Frame Time:    0.010000
-5.474105    92.005768    -5.409174    -1.008099    -3.642179    170.431396    -3.484780    -5.977665    3.440867    -0.817565    2.859307    3.643294    5.742730    13.621199    2.705501    -3.045427    -4.774708    2.114460    6.562423    12.642411    5.797145    -74.881989    37.243279    -10.738256    -4.894818    -0.800182    -5.077213    -2.846896    -1.223692    8.292809    -4.387685    4.849658    6.682285    63.045242    19.971148    22.782774    6.538261    -4.021055    31.031399    4.908595    -6.018034    -4.369064    2.628307    -26.332260    4.785073    -7.042001    24.294106    -1.759237    8.431380    -7.311243    0.013475    0.000000    0.000000    0.000000    -5.765983    7.932964    -1.180944    5.500946    42.787743    6.444001    -7.035440    -9.755385    9.420073    0.000000    0.000000    0.000000    
-5.509439    92.232475    -6.774583    -0.910006    -3.683047    170.372162    -3.438725    -5.876888    3.378899    -0.941022    2.533337    3.576288    6.063526    13.539716    2.731484    -3.450649    -4.091677    2.074607    6.762658    12.793393    6.092242    -75.349335    36.593143    -9.867612    -5.100163    -1.333757    -5.827559    -2.695957    -1.780418    7.939212    -4.217166    4.631754    6.599025    62.707951    19.966625    23.038671    6.770204    -3.807231    31.324816    4.958808    -5.883550    -4.226787    2.417143    -25.359348    6.603674    -5.886333    24.295778    -3.118742    8.036876    -8.509429    -0.659669    0.000000    0.000000    0.000000    -5.628321    6.331023    -1.243282    4.817538    46.513680    7.327973    -6.088863    -8.687631    8.730073    0.000000    0.000000    0.000000    
-5.528275    92.457680    -8.062039    -0.930466    -3.726770    170.420624    -3.707353    -5.640623    3.176316    -0.873120    2.082209    3.374914    6.520972    13.172406    2.903622    -3.983958    -3.041494    2.160608    6.963147    12.818344    6.476314    -75.979073    35.535534    -8.801264    -5.363292    -1.462945    -6.608063    -2.854314    -1.955684    7.341658    -4.018697    4.656917    6.446980    62.205036    19.783001    23.427214    7.126939    -3.296242    32.013607    4.889222    -5.525391    -4.410335    2.176913    -24.565609    7.987079    -5.099543    24.495720    -4.517383    7.664324    -9.445656    -0.755574    0.000000    0.000000    0.000000    -5.711228    4.666660    -0.209816    6.146777    50.154491    7.430881    -6.839165    -7.792458    7.389174    0.000000    0.000000    0.000000    
-5.547902    92.694557    -9.333933    -1.040547    -3.796663    170.657333    -4.254997    -5.467505    2.884560    -0.459820    1.704086    3.094699    6.778634    12.847909    2.976167    -4.465063    -2.109404    2.162414    6.999628    12.992606    6.985715    -76.549957    34.914619    -8.207366    -4.573518    -1.162163    -6.939799    -5.193070    -1.702298    5.791734    -4.022079    4.506898    6.432074    61.959576    19.793741    23.593111    6.919895    -2.937985    32.435253    5.334467    -5.150759    -4.354070    2.039240    -23.816683    8.387719    -5.305808    24.618488    -5.179418    7.591987    -10.089482    -0.368611    0.000000    0.000000    0.000000    -5.784681    2.788185    -0.464737    6.042860    54.136555    9.235873    -7.703177    -6.789668    5.951844    0.000000    0.000000    0.000000    
-5.604569    92.920311    -10.634946    -1.250351    -3.784840    171.026489    -4.767235    -5.373950    2.531924    -0.253436    1.568534    2.759286    6.753185    12.563805    3.101025    -4.338709    -1.509804    2.317922    7.156661    12.988989    7.435751    -77.048019    33.887650    -7.616817    -4.786122    -1.934856    -7.703674    -5.015137    -2.515572    5.903555    -3.986789    4.607265    6.319396    61.571644    19.270178    24.103121    7.692467    -2.587750    32.715347    4.797687    -5.007219    -3.896869    1.785669    -22.989031    7.656384    -6.161703    24.530458    -4.102834    7.507366    -10.527955    -0.663065    0.000000    0.000000    0.000000    -6.062378    1.103780    -0.105718    7.251704    57.745422    9.438506    -5.940604    -7.221830    2.955430    0.000000    0.000000    0.000000    
-5.665498    93.148232    -11.965886    -1.471501    -3.685214    171.443512    -5.313399    -5.270171    2.209761    -0.034329    1.550764    2.454985    7.284579    12.122000    3.158910    -5.014706    -0.604792    2.263288    7.468786    13.081894    7.865055    -77.488808    33.405396    -7.467661    -4.805861    -2.655009    -8.211802    -5.259996    -3.254181    5.543275    -3.963573    4.523000    6.240249    61.457397    19.765757    24.037308    6.883936    -2.722949    33.584576    5.158829    -4.969425    -3.804124    1.442425    -22.033211    6.631756    -7.014010    24.321295    -2.814606    7.507092    -10.891335    -1.036137    0.000000    0.000000    0.000000    -6.331955    -0.414848    0.198259    8.739253    60.880329    8.014789    -3.246112    -8.642080    0.237951    0.000000    0.000000    0.000000    
-5.736498    93.350639    -13.295169    -1.713625    -3.682005    171.877747    -5.766489    -5.403557    1.935166    0.276704    1.754535    2.203349    6.889240    11.907391    3.267978    -4.639162    -0.408298    2.441956    7.354463    13.049853    8.075150    -77.612038    33.384880    -7.451434    -4.214413    -2.936545    -8.593774    -6.275471    -3.535401    5.159653    -4.222080    4.439962    6.061331    61.680241    19.600782    23.917051    7.430978    -3.089804    34.650169    3.950266    -5.554134    -4.341397    1.003768    -21.136154    5.530286    -7.660608    24.007664    -1.898837    7.546299    -11.291391    -1.146906    0.000000    0.000000    0.000000    -6.447259    -1.983099    -0.090580    9.331270    63.616779    5.875295    -3.484668    -9.999113    -0.009839    0.000000    0.000000    0.000000    
-5.795176    93.536438    -14.598531    -1.881967    -3.630919    172.237564    -6.116369    -5.438957    1.727729    0.557159    1.770958    2.009973    6.867206    11.882167    3.301625    -4.799607    -0.055216    2.467346    7.202427    13.044111    7.964738    -77.505890    32.951092    -7.523122    -4.277060    -3.672556    -8.947482    -5.791226    -4.273076    5.279097    -4.402318    4.612023    5.953050    61.585484    19.241667    24.179537    7.579283    -2.770301    34.652744    4.031244    -5.275075    -4.053973    0.591253    -20.133539    4.598182    -8.025586    23.585440    -1.591182    7.567241    -11.714855    -0.873717    0.000000    0.000000    0.000000    -6.841879    -3.506019    0.212050    12.935962    65.967506    3.022541    -7.221723    -11.054017    -0.665000    0.000000    0.000000    0.000000    
-5.863605    93.703484    -15.894580    -1.939561    -3.543344    172.584503    -5.658763    -5.866579    1.413681    -0.483461    2.591009    1.714906    7.165875    11.793423    3.440372    -4.587347    -0.053404    2.624141    7.617887    12.721910    8.153127    -77.354553    33.035397    -7.828353    -4.018009    -3.124136    -8.937379    -5.656319    -3.663942    4.585529    -3.817858    4.342803    6.489891    61.619225    18.903736    23.883505    7.429001    -2.880369    35.023361    4.085255    -5.362444    -3.949649    0.221014    -19.017937    3.795701    -8.181093    23.013399    -1.885332    7.716273    -12.128744    -0.190933    0.000000    0.000000    0.000000    -6.690718    -5.001794    -0.882433    11.646420    68.046684    1.993121    -9.889630    -11.975229    1.205482    0.000000    0.000000    0.000000    
-5.925990    93.847839    -17.145634    -1.878790    -3.501924    172.910110    -5.985020    -5.379511    1.449767    0.413385    1.771950    1.724885    6.902852    11.993052    3.184165    -4.839855    0.381194    2.363028    7.111400    12.820330    7.570735    -77.069687    33.889950    -8.149459    -3.391262    -3.450820    -9.049845    -5.780560    -3.956871    4.724918    -4.409711    4.804083    5.681979    61.792431    19.496870    23.854738    6.209890    -2.826394    35.170441    5.691473    -4.981528    -3.818108    -0.075195    -17.913034    3.259684    -8.045801    22.420279    -2.612510    7.916859    -12.668682    0.588226    0.000000    0.000000    0.000000    -6.899296    -6.523195    -0.574745    16.277933    69.617905    -1.331684    -12.138054    -12.865716    -1.304631    0.000000    0.000000    0.000000    
-5.981230    94.008904    -18.370825    -1.774104    -3.474475    173.154739    -5.286992    -5.828993    1.239330    -0.638656    2.592927    1.523191    7.460468    12.365908    3.445978    -5.119873    -0.362490    2.567400    7.393551    12.350314    7.466398    -76.475174    33.804947    -8.741579    -3.518044    -4.085627    -9.152229    -4.932020    -4.593893    5.292101    -3.816719    4.569273    6.262833    61.988525    18.935987    23.454065    7.050313    -3.429880    35.371822    4.116324    -5.817831    -4.019199    -0.346147    -16.808529    3.169386    -7.632072    21.849234    -3.452899    8.072145    -13.192980    1.123223    0.000000    0.000000    0.000000    -6.777991    -8.296475    -1.437581    16.223059    71.352180    -1.099473    -13.045764    -13.571054    -2.702654    0.000000    0.000000    0.000000    
